<svg data-noselect="" viewBox="0 0 400 300" width="400" height="300" preserveAspectRatio="none" version="1.1" xmlns="http://www.w3.org/2000/svg" style="background: rgba(255, 255, 255, 0);"><defs></defs> <g id="shape_Fiz2qXGT4P" transform="translate(158.84244372990355,95.33762057877814) rotate(0,0,0) scale(1.2861736334405145,1.2861736334405145)" filter="" style="cursor: move; opacity: 1;"><g><rect fill="rgba(0,0,0,0)" width="84" height="61" x="-10" y="-10"></rect><svg version="1.1" id="图层_1" xmlns="http://www.w3.org/2000/svg" xmlns:xlink="http://www.w3.org/1999/xlink" x="0px" y="0px" style="enable-background:new 0 0 283.46 226.77;" xml:space="preserve" viewBox="109.66300201416016 93.21800231933594 64.4649887084961 41.755218505859375" width="64" height="41" preserveAspectRatio="none" data-parent="shape_Fiz2qXGT4P">
<g>
	<path style="" d="M132.22,111.901c-7.225-4.172-15.792-3.916-22.557-0.075
		c0.056,7.781,4.117,15.327,11.342,19.498c7.437,4.294,13.652,4.432,17.557,2.305c0.333-0.181,0.538-0.484,0.583-0.86
		c0.045-0.376-0.085-0.72-0.366-0.974c-4.263-3.847-9.552-9.075-5.5-13.126l0,0c1.69-1.69,4.279-1.971,6.267-0.838
		C137.818,115.766,135.405,113.74,132.22,111.901z" fill-rule="evenodd" clip-rule="evenodd" fill="#39854B"></path>
	<path style="" d="M142.784,109.545c-4.172-7.225-11.719-11.285-19.498-11.342
		c-3.842,6.767-4.097,15.332,0.073,22.557c4.635,8.03,10.461,11.152,15.097,10.743c-4.199-3.817-9.127-8.886-5.177-12.835l0,0
		c2.025-2.026,5.339-2.026,7.364,0c0.426,0.426,0.817,0.868,1.173,1.32c0.026,0.035,0.052,0.069,0.079,0.103
		c0.026-0.035,0.052-0.068,0.078-0.103c0.356-0.452,0.746-0.894,1.174-1.32c0.785-0.785,1.763-1.266,2.784-1.441
		C145.383,114.869,144.369,112.292,142.784,109.545z" fill-rule="evenodd" clip-rule="evenodd" fill="#4C9F37"></path>
	<path style="" d="M120.325,108.866c-0.102,4.033,0.87,8.144,3.034,11.894
		c4.637,8.03,10.462,11.153,15.099,10.744c-4.2-3.817-9.131-8.886-5.179-12.836l0,0c1.69-1.692,4.28-1.971,6.267-0.838
		c-1.727-2.064-4.141-4.091-7.326-5.93C128.469,109.736,124.358,108.764,120.325,108.866z" fill-rule="evenodd" clip-rule="evenodd" fill="#15582E"></path>
	<path style="" d="M153.109,112.789c0-8.343-4.504-15.634-11.214-19.571
		c-6.71,3.938-11.215,11.229-11.215,19.571c0,3.294,0.439,6.126,1.196,8.498c0.134-0.907,0.572-1.788,1.403-2.619l0,0
		c2.025-2.026,5.339-2.026,7.364,0c0.426,0.426,0.817,0.868,1.173,1.32c0.026,0.035,0.052,0.069,0.079,0.103
		c0.026-0.035,0.052-0.068,0.078-0.103c0.356-0.452,0.746-0.894,1.174-1.32c2.025-2.026,5.339-2.026,7.364,0l0,0
		c0.831,0.831,1.267,1.71,1.402,2.617C152.67,118.915,153.109,116.083,153.109,112.789z" fill-rule="evenodd" clip-rule="evenodd" fill="#65B638"></path>
	<path style="" d="M134,100.971c-2.105,3.442-3.32,7.488-3.32,11.818
		c0,3.295,0.439,6.127,1.196,8.5c0.136-0.908,0.572-1.789,1.403-2.62l0,0c2.025-2.026,5.339-2.026,7.364,0
		c0.426,0.426,0.817,0.868,1.173,1.32c0.026,0.035,0.052,0.069,0.079,0.103c0.026-0.035,0.052-0.068,0.078-0.103
		c0.356-0.452,0.746-0.894,1.174-1.32c0.785-0.786,1.764-1.266,2.787-1.442c-0.548-2.358-1.566-4.936-3.15-7.681
		C140.618,105.795,137.544,102.899,134,100.971z" fill-rule="evenodd" clip-rule="evenodd" fill="#267939"></path>
	<path style="" d="M130.741,111.117c-0.04,0.552-0.061,1.11-0.061,1.672
		c0,3.295,0.439,6.127,1.196,8.5c0.136-0.908,0.572-1.789,1.403-2.62l0,0c1.69-1.692,4.28-1.971,6.267-0.838
		c-1.727-2.064-4.141-4.091-7.326-5.93C131.733,111.619,131.24,111.359,130.741,111.117z" fill-rule="evenodd" clip-rule="evenodd" fill="#104122"></path>
	<path style="" d="M160.432,120.76c4.171-7.225,3.914-15.791,0.074-22.557
		c-7.781,0.057-15.328,4.117-19.498,11.342c-1.586,2.747-2.6,5.325-3.148,7.683c1.021,0.175,1.999,0.657,2.784,1.441
		c0.426,0.426,0.817,0.868,1.173,1.32c0.026,0.035,0.052,0.069,0.079,0.103c0.026-0.035,0.052-0.068,0.078-0.103
		c0.356-0.452,0.746-0.894,1.174-1.32c2.025-2.026,5.339-2.026,7.364,0l0,0c3.95,3.949-0.978,9.018-5.179,12.835
		C149.971,131.911,155.795,128.79,160.432,120.76z" fill-rule="evenodd" clip-rule="evenodd" fill="#88BE44"></path>
	<path style="" d="M162.786,131.324c7.224-4.171,11.286-11.717,11.342-19.498
		c-6.766-3.841-15.332-4.097-22.557,0.075c-3.186,1.839-5.6,3.866-7.326,5.93c1.988-1.132,4.576-0.852,6.267,0.838l0,0
		c4.052,4.051-1.237,9.28-5.5,13.126c-0.281,0.254-0.411,0.598-0.366,0.974c0.045,0.376,0.251,0.68,0.583,0.86
		C149.134,135.756,155.349,135.618,162.786,131.324z" fill-rule="evenodd" clip-rule="evenodd" fill="#91C646"></path>
	<path style="" d="M163.465,108.866c-4.034-0.102-8.145,0.869-11.894,3.035
		c-3.186,1.839-5.6,3.866-7.326,5.93c1.987-1.132,4.576-0.853,6.267,0.838l0,0c3.952,3.95-0.98,9.019-5.179,12.836
		c4.638,0.408,10.463-2.715,15.099-10.744C162.595,117.01,163.567,112.9,163.465,108.866z" fill-rule="evenodd" clip-rule="evenodd" fill="#53A035"></path>
	<path style="" d="M149.791,100.971c-3.544,1.928-6.619,4.824-8.783,8.574
		c-1.585,2.746-2.604,5.323-3.15,7.681c1.023,0.177,2,0.656,2.787,1.442c0.426,0.426,0.817,0.868,1.173,1.32
		c0.026,0.035,0.052,0.069,0.079,0.103c0.026-0.035,0.052-0.068,0.078-0.103c0.356-0.452,0.746-0.894,1.174-1.32
		c2.025-2.026,5.339-2.026,7.364,0l0,0c0.831,0.831,1.267,1.712,1.402,2.619c0.756-2.372,1.196-5.204,1.196-8.498
		C153.109,108.459,151.896,104.413,149.791,100.971z" fill-rule="evenodd" clip-rule="evenodd" fill="#3B8F39"></path>
	<path style="" d="M145.934,117.226c-0.548-2.358-1.566-4.936-3.15-7.681
		c-0.282-0.486-0.578-0.958-0.888-1.416c-0.312,0.459-0.608,0.931-0.888,1.416c-1.585,2.746-2.604,5.323-3.15,7.681
		c1.023,0.177,2,0.656,2.787,1.442c0.426,0.426,0.817,0.868,1.173,1.32c0.026,0.035,0.052,0.069,0.079,0.103
		c0.026-0.035,0.052-0.068,0.078-0.103c0.356-0.452,0.746-0.894,1.174-1.32C143.932,117.883,144.911,117.403,145.934,117.226z" fill-rule="evenodd" clip-rule="evenodd" fill="#165E31"></path>
	<path style="" d="M151.913,121.287c0.756-2.372,1.196-5.204,1.196-8.498
		c0-0.562-0.02-1.12-0.061-1.672c-0.497,0.242-0.99,0.502-1.477,0.784c-3.186,1.839-5.6,3.866-7.326,5.93
		c1.987-1.132,4.576-0.853,6.267,0.838l0,0C151.343,119.5,151.779,120.38,151.913,121.287z" fill-rule="evenodd" clip-rule="evenodd" fill="#287939"></path>
	<path style="" d="M138.1,116.272c-0.09,0.323-0.171,0.64-0.244,0.954
		c0.587,0.101,1.159,0.303,1.688,0.603C139.106,117.307,138.627,116.788,138.1,116.272z" fill-rule="evenodd" clip-rule="evenodd" fill="#0F3118"></path>
	<path style="" d="M145.936,117.226c-0.074-0.314-0.155-0.632-0.244-0.954
		c-0.527,0.515-1.006,1.035-1.444,1.557C144.777,117.529,145.348,117.327,145.936,117.226z" fill-rule="evenodd" clip-rule="evenodd" fill="#0F502B"></path>
</g>
</svg></g> <!----></g><g id="shapge_LGl7qgig2q" transform="translate(38.58520900321543,155.7877813504823) rotate(0,0,0) scale(1.2861736334405145,1.2861736334405145)" filter="" style="cursor: move; opacity: 1;"><g><svg xmlns="http://www.w3.org/2000/svg" version="1.1" xmlns:xlink="http://www.w3.org/1999/xlink" overflow="hidden" style="top:0; left: 0" width="251" height="38" viewBox="0 0 251.67400000000006 38.279999999999994" preserveAspectRatio="none" data-parent="shapge_LGl7qgig2q"><rect fill="rgba(0,0,0,0)" width="251" height="38"></rect> <rect opacity="0"></rect><g transform="translate(0 0)" data-width="246.67400000000006"><path fill="#65B638" d="M8.82 0.38L8.82 0.38L8.82 0.38Q6.55 0.38 4.65-0.46L4.65-0.46L4.65-0.46Q2.76-1.31 1.36-2.78L1.36-2.78L2.96-4.61L2.96-4.61Q5.54-1.97 8.85-1.97L8.85-1.97L8.85-1.97Q10.93-1.97 12.12-2.93L12.12-2.93L12.12-2.93Q13.31-3.89 13.31-5.45L13.31-5.45L13.31-5.45Q13.31-6.55 12.85-7.21L12.85-7.21L12.85-7.21Q12.38-7.86 11.59-8.32L11.59-8.32L11.59-8.32Q10.79-8.79 9.77-9.22L9.77-9.22L6.70-10.56L6.70-10.56Q5.68-10.96 4.70-11.66L4.70-11.66L4.70-11.66Q3.71-12.35 3.05-13.41L3.05-13.41L3.05-13.41Q2.38-14.47 2.38-16.01L2.38-16.01L2.38-16.01Q2.38-18.47 4.28-20.07L4.28-20.07L4.28-20.07Q6.18-21.66 9.08-21.66L9.08-21.66L9.08-21.66Q10.96-21.66 12.59-20.94L12.59-20.94L12.59-20.94Q14.21-20.21 15.34-19.02L15.34-19.02L13.92-17.31L13.92-17.31Q12.93-18.24 11.75-18.78L11.75-18.78L11.75-18.78Q10.56-19.31 9.08-19.31L9.08-19.31L9.08-19.31Q7.28-19.31 6.19-18.47L6.19-18.47L6.19-18.47Q5.10-17.63 5.10-16.18L5.10-16.18L5.10-16.18Q5.10-15.17 5.64-14.50L5.64-14.50L5.64-14.50Q6.18-13.83 6.97-13.41L6.97-13.41L6.97-13.41Q7.77-12.99 8.61-12.64L8.61-12.64L11.66-11.34L11.66-11.34Q12.91-10.82 13.89-10.09L13.89-10.09L13.89-10.09Q14.88-9.37 15.46-8.31L15.46-8.31L15.46-8.31Q16.04-7.25 16.04-5.66L16.04-5.66L16.04-5.66Q16.04-3.13 14.09-1.38L14.09-1.38L14.09-1.38Q12.15 0.38 8.82 0.38Z" transform="translate(0 25.52)"></path><path fill="#65B638" d="M5.31 0L2.67 0L2.67-15.75L5.31-15.75L5.31 0ZM4.00-19.00L4.00-19.00L4.00-19.00Q3.22-19.00 2.70-19.49L2.70-19.49L2.70-19.49Q2.18-19.98 2.18-20.71L2.18-20.71L2.18-20.71Q2.18-22.33 4.00-22.42L4.00-22.42L4.00-22.42Q4.79-22.42 5.31-21.97L5.31-21.97L5.31-21.97Q5.83-21.52 5.83-20.71L5.83-20.71L5.83-20.71Q5.83-19.98 5.31-19.49L5.31-19.49L5.31-19.49Q4.79-19.00 4.00-19.00Z" transform="translate(17.313000000000002 25.52)"></path><path fill="#65B638" d="M5.31 0L2.67 0L2.67-15.75L4.84-15.75L5.08-13.46L5.16-13.46L5.16-13.46Q6.18-14.62 7.41-15.38L7.41-15.38L7.41-15.38Q8.64-16.15 10.06-16.15L10.06-16.15L10.06-16.15Q11.86-16.15 12.91-15.36L12.91-15.36L12.91-15.36Q13.95-14.56 14.41-13.14L14.41-13.14L14.41-13.14Q15.63-14.50 16.91-15.33L16.91-15.33L16.91-15.33Q18.18-16.15 19.60-16.15L19.60-16.15L19.60-16.15Q22.04-16.15 23.21-14.57L23.21-14.57L23.21-14.57Q24.39-12.99 24.39-9.98L24.39-9.98L24.39 0L21.75 0L21.75-9.63L21.75-9.63Q21.75-11.86 21.04-12.85L21.04-12.85L21.04-12.85Q20.33-13.83 18.82-13.83L18.82-13.83L18.82-13.83Q16.99-13.83 14.85-11.43L14.85-11.43L14.85 0L12.21 0L12.21-9.63L12.21-9.63Q12.21-11.86 11.50-12.85L11.50-12.85L11.50-12.85Q10.79-13.83 9.28-13.83L9.28-13.83L9.28-13.83Q7.51-13.83 5.31-11.43L5.31-11.43L5.31 0Z" transform="translate(25.288000000000004 25.52)"></path><path fill="#65B638" d="M5.31 6.64L2.67 6.64L2.67-15.75L4.84-15.75L5.08-13.95L5.16-13.95L5.16-13.95Q6.24-14.85 7.53-15.50L7.53-15.50L7.53-15.50Q8.82-16.15 10.18-16.15L10.18-16.15L10.18-16.15Q13.22-16.15 14.83-13.95L14.83-13.95L14.83-13.95Q16.44-11.75 16.44-8.12L16.44-8.12L16.44-8.12Q16.44-5.42 15.49-3.52L15.49-3.52L15.49-3.52Q14.53-1.62 12.98-0.62L12.98-0.62L12.98-0.62Q11.43 0.38 9.60 0.38L9.60 0.38L9.60 0.38Q7.48 0.38 5.25-1.45L5.25-1.45L5.31 1.31L5.31 6.64ZM9.16-1.83L9.16-1.83L9.16-1.83Q11.14-1.83 12.41-3.49L12.41-3.49L12.41-3.49Q13.69-5.16 13.69-8.09L13.69-8.09L13.69-8.09Q13.69-10.70 12.73-12.31L12.73-12.31L12.73-12.31Q11.77-13.92 9.54-13.92L9.54-13.92L9.54-13.92Q7.54-13.92 5.31-11.75L5.31-11.75L5.31-3.48L5.31-3.48Q6.38-2.58 7.38-2.20L7.38-2.20L7.38-2.20Q8.38-1.83 9.16-1.83Z" transform="translate(52.14200000000001 25.52)"></path><path fill="#65B638" d="M5.45 0.38L5.45 0.38L5.45 0.38Q3.97 0.38 3.32-0.54L3.32-0.54L3.32-0.54Q2.67-1.45 2.67-3.13L2.67-3.13L2.67-23.08L5.31-23.08L5.31-2.96L5.31-2.96Q5.31-2.35 5.54-2.09L5.54-2.09L5.54-2.09Q5.77-1.83 6.06-1.83L6.06-1.83L6.06-1.83Q6.18-1.83 6.29-1.84L6.29-1.84L6.29-1.84Q6.41-1.86 6.61-1.89L6.61-1.89L6.99 0.15L6.99 0.15Q6.50 0.38 5.45 0.38Z" transform="translate(70.12200000000001 25.52)"></path><path fill="#65B638" d="M9.02 0.38L9.02 0.38L9.02 0.38Q6.93 0.38 5.22-0.59L5.22-0.59L5.22-0.59Q3.51-1.57 2.49-3.42L2.49-3.42L2.49-3.42Q1.48-5.28 1.48-7.86L1.48-7.86L1.48-7.86Q1.48-10.41 2.49-12.27L2.49-12.27L2.49-12.27Q3.51-14.12 5.13-15.14L5.13-15.14L5.13-15.14Q6.76-16.15 8.58-16.15L8.58-16.15L8.58-16.15Q11.60-16.15 13.22-14.14L13.22-14.14L13.22-14.14Q14.85-12.12 14.85-8.76L14.85-8.76L14.85-8.76Q14.85-7.89 14.73-7.25L14.73-7.25L4.12-7.25L4.12-7.25Q4.29-4.70 5.70-3.22L5.70-3.22L5.70-3.22Q7.11-1.74 9.34-1.74L9.34-1.74L9.34-1.74Q10.50-1.74 11.46-2.07L11.46-2.07L11.46-2.07Q12.41-2.41 13.28-2.99L13.28-2.99L14.24-1.25L14.24-1.25Q13.20-0.55 11.92-0.09L11.92-0.09L11.92-0.09Q10.64 0.38 9.02 0.38ZM4.09-9.13L4.09-9.13L12.53-9.13L12.53-9.13Q12.53-13.92 8.61-14.04L8.61-14.04L8.61-14.04Q6.93-14.04 5.66-12.76L5.66-12.76L5.66-12.76Q4.38-11.48 4.09-9.13Z" transform="translate(78.38700000000001 25.52)"></path><path fill="#65B638" d="" transform="translate(94.45300000000002 25.52)"></path><path fill="#65B638" d="M9.69 0L2.90 0L2.90-21.26L9.22-21.26L9.22-21.26Q11.40-21.26 13.04-20.73L13.04-20.73L13.04-20.73Q14.67-20.21 15.60-19.08L15.60-19.08L15.60-19.08Q16.53-17.95 16.53-16.07L16.53-16.07L16.53-16.07Q16.53-14.47 15.72-13.22L15.72-13.22L15.72-13.22Q14.91-11.98 13.40-11.46L13.40-11.46L13.40-11.31L13.40-11.31Q15.34-10.93 16.54-9.67L16.54-9.67L16.54-9.67Q17.75-8.41 17.75-6.24L17.75-6.24L17.75-6.24Q17.75-3.10 15.50-1.55L15.50-1.55L15.50-1.55Q13.25 0 9.69 0L9.69 0ZM5.60-19.14L5.60-12.21L8.76-12.21L8.76-12.21Q11.51-12.21 12.70-13.17L12.70-13.17L12.70-13.17Q13.89-14.12 13.89-15.72L13.89-15.72L13.89-15.72Q13.89-17.60 12.63-18.37L12.63-18.37L12.63-18.37Q11.37-19.14 8.87-19.14L8.87-19.14L5.60-19.14ZM5.60-10.15L5.60-2.15L9.31-2.15L9.31-2.15Q12.06-2.15 13.59-3.16L13.59-3.16L13.59-3.16Q15.11-4.18 15.11-6.32L15.11-6.32L15.11-6.32Q15.11-8.29 13.60-9.22L13.60-9.22L13.60-9.22Q12.09-10.15 9.31-10.15L9.31-10.15L5.60-10.15Z" transform="translate(105.99500000000002 25.52)"></path><path fill="#65B638" d="M8.79 0.38L8.79 0.38L8.79 0.38Q6.87 0.38 5.21-0.59L5.21-0.59L5.21-0.59Q3.54-1.57 2.51-3.41L2.51-3.41L2.51-3.41Q1.48-5.25 1.48-7.86L1.48-7.86L1.48-7.86Q1.48-10.50 2.51-12.34L2.51-12.34L2.51-12.34Q3.54-14.18 5.21-15.17L5.21-15.17L5.21-15.17Q6.87-16.15 8.79-16.15L8.79-16.15L8.79-16.15Q10.73-16.15 12.38-15.17L12.38-15.17L12.38-15.17Q14.04-14.18 15.07-12.34L15.07-12.34L15.07-12.34Q16.10-10.50 16.10-7.86L16.10-7.86L16.10-7.86Q16.10-5.25 15.07-3.41L15.07-3.41L15.07-3.41Q14.04-1.57 12.38-0.59L12.38-0.59L12.38-0.59Q10.73 0.38 8.79 0.38ZM8.79-1.83L8.79-1.83L8.79-1.83Q10.85-1.83 12.11-3.48L12.11-3.48L12.11-3.48Q13.37-5.13 13.37-7.86L13.37-7.86L13.37-7.86Q13.37-10.59 12.11-12.27L12.11-12.27L12.11-12.27Q10.85-13.95 8.79-13.95L8.79-13.95L8.79-13.95Q6.76-13.95 5.50-12.27L5.50-12.27L5.50-12.27Q4.23-10.59 4.23-7.86L4.23-7.86L4.23-7.86Q4.23-5.13 5.50-3.48L5.50-3.48L5.50-3.48Q6.76-1.83 8.79-1.83Z" transform="translate(125.04800000000002 25.52)"></path><path fill="#65B638" d="M8.79 0.38L8.79 0.38L8.79 0.38Q6.87 0.38 5.21-0.59L5.21-0.59L5.21-0.59Q3.54-1.57 2.51-3.41L2.51-3.41L2.51-3.41Q1.48-5.25 1.48-7.86L1.48-7.86L1.48-7.86Q1.48-10.50 2.51-12.34L2.51-12.34L2.51-12.34Q3.54-14.18 5.21-15.17L5.21-15.17L5.21-15.17Q6.87-16.15 8.79-16.15L8.79-16.15L8.79-16.15Q10.73-16.15 12.38-15.17L12.38-15.17L12.38-15.17Q14.04-14.18 15.07-12.34L15.07-12.34L15.07-12.34Q16.10-10.50 16.10-7.86L16.10-7.86L16.10-7.86Q16.10-5.25 15.07-3.41L15.07-3.41L15.07-3.41Q14.04-1.57 12.38-0.59L12.38-0.59L12.38-0.59Q10.73 0.38 8.79 0.38ZM8.79-1.83L8.79-1.83L8.79-1.83Q10.85-1.83 12.11-3.48L12.11-3.48L12.11-3.48Q13.37-5.13 13.37-7.86L13.37-7.86L13.37-7.86Q13.37-10.59 12.11-12.27L12.11-12.27L12.11-12.27Q10.85-13.95 8.79-13.95L8.79-13.95L8.79-13.95Q6.76-13.95 5.50-12.27L5.50-12.27L5.50-12.27Q4.23-10.59 4.23-7.86L4.23-7.86L4.23-7.86Q4.23-5.13 5.50-3.48L5.50-3.48L5.50-3.48Q6.76-1.83 8.79-1.83Z" transform="translate(142.622 25.52)"></path><path fill="#65B638" d="M5.28 0L2.67 0L2.67-23.08L5.28-23.08L5.28-7.42L5.34-7.42L12.09-15.75L15.02-15.75L9.74-9.43L15.72 0L12.85 0L8.24-7.60L5.28-4.15L5.28 0Z" transform="translate(160.19600000000003 25.52)"></path><path fill="#65B638" d="M5.31 0L2.67 0L2.67-15.75L4.84-15.75L5.08-13.46L5.16-13.46L5.16-13.46Q6.18-14.62 7.41-15.38L7.41-15.38L7.41-15.38Q8.64-16.15 10.06-16.15L10.06-16.15L10.06-16.15Q11.86-16.15 12.91-15.36L12.91-15.36L12.91-15.36Q13.95-14.56 14.41-13.14L14.41-13.14L14.41-13.14Q15.63-14.50 16.91-15.33L16.91-15.33L16.91-15.33Q18.18-16.15 19.60-16.15L19.60-16.15L19.60-16.15Q22.04-16.15 23.21-14.57L23.21-14.57L23.21-14.57Q24.39-12.99 24.39-9.98L24.39-9.98L24.39 0L21.75 0L21.75-9.63L21.75-9.63Q21.75-11.86 21.04-12.85L21.04-12.85L21.04-12.85Q20.33-13.83 18.82-13.83L18.82-13.83L18.82-13.83Q16.99-13.83 14.85-11.43L14.85-11.43L14.85 0L12.21 0L12.21-9.63L12.21-9.63Q12.21-11.86 11.50-12.85L11.50-12.85L11.50-12.85Q10.79-13.83 9.28-13.83L9.28-13.83L9.28-13.83Q7.51-13.83 5.31-11.43L5.31-11.43L5.31 0Z" transform="translate(176.20400000000004 25.52)"></path><path fill="#65B638" d="M6.29 0.38L6.29 0.38L6.29 0.38Q4.32 0.38 3.00-0.80L3.00-0.80L3.00-0.80Q1.68-1.97 1.68-4.09L1.68-4.09L1.68-4.09Q1.68-6.67 4.03-8.05L4.03-8.05L4.03-8.05Q6.38-9.43 11.37-9.98L11.37-9.98L11.37-9.98Q11.37-10.99 11.09-11.90L11.09-11.90L11.09-11.90Q10.82-12.82 10.12-13.38L10.12-13.38L10.12-13.38Q9.43-13.95 8.12-13.95L8.12-13.95L8.12-13.95Q6.76-13.95 5.55-13.44L5.55-13.44L5.55-13.44Q4.35-12.93 3.39-12.27L3.39-12.27L2.35-14.09L2.35-14.09Q3.45-14.82 5.06-15.49L5.06-15.49L5.06-15.49Q6.67-16.15 8.55-16.15L8.55-16.15L8.55-16.15Q11.43-16.15 12.72-14.38L12.72-14.38L12.72-14.38Q14.01-12.62 14.01-9.69L14.01-9.69L14.01 0L11.83 0L11.60-1.89L11.51-1.89L11.51-1.89Q10.38-0.93 9.06-0.28L9.06-0.28L9.06-0.28Q7.74 0.38 6.29 0.38ZM7.05-1.74L7.05-1.74L7.05-1.74Q8.21-1.74 9.22-2.28L9.22-2.28L9.22-2.28Q10.24-2.81 11.37-3.83L11.37-3.83L11.37-8.24L11.37-8.24Q7.45-7.77 5.86-6.79L5.86-6.79L5.86-6.79Q4.26-5.80 4.26-4.26L4.26-4.26L4.26-4.26Q4.26-2.93 5.08-2.33L5.08-2.33L5.08-2.33Q5.89-1.74 7.05-1.74Z" transform="translate(203.05800000000005 25.52)"></path><path fill="#65B638" d="M5.31 0L2.67 0L2.67-15.75L4.84-15.75L5.08-12.88L5.16-12.88L5.16-12.88Q6.00-14.38 7.15-15.27L7.15-15.27L7.15-15.27Q8.29-16.15 9.63-16.15L9.63-16.15L9.63-16.15Q10.67-16.15 11.31-15.81L11.31-15.81L10.82-13.49L10.82-13.49Q10.44-13.63 10.11-13.69L10.11-13.69L10.11-13.69Q9.77-13.75 9.28-13.75L9.28-13.75L9.28-13.75Q8.29-13.75 7.21-12.93L7.21-12.93L7.21-12.93Q6.12-12.12 5.31-10.12L5.31-10.12L5.31 0Z" transform="translate(219.41400000000004 25.52)"></path><path fill="#65B638" d="M5.28 0L2.67 0L2.67-23.08L5.28-23.08L5.28-7.42L5.34-7.42L12.09-15.75L15.02-15.75L9.74-9.43L15.72 0L12.85 0L8.24-7.60L5.28-4.15L5.28 0Z" transform="translate(230.66600000000005 25.52)"></path></g></svg></g> <!----></g>  <!----></svg>